<svg width="204" height="48" viewBox="0 0 204 48" fill="none" xmlns="http://www.w3.org/2000/svg">
<path d="M38.8125 42.4688C36.7292 44.2396 34.4062 45.6042 31.8438 46.5625C29.2812 47.5 26.6146 47.9688 23.8438 47.9688C21.7188 47.9688 19.6667 47.6875 17.6875 47.125C15.7292 46.5833 13.8958 45.8125 12.1875 44.8125C10.4792 43.7917 8.91667 42.5833 7.5 41.1875C6.08333 39.7708 4.875 38.2083 3.875 36.5C2.875 34.7708 2.09375 32.9167 1.53125 30.9375C0.989583 28.9583 0.71875 26.9062 0.71875 24.7812C0.71875 22.6562 0.989583 20.6146 1.53125 18.6562C2.09375 16.6979 2.875 14.8646 3.875 13.1562C4.875 11.4271 6.08333 9.86458 7.5 8.46875C8.91667 7.05208 10.4792 5.84375 12.1875 4.84375C13.8958 3.84375 15.7292 3.07292 17.6875 2.53125C19.6667 1.96875 21.7188 1.6875 23.8438 1.6875C26.6146 1.6875 29.2812 2.16667 31.8438 3.125C34.4062 4.0625 36.7292 5.41667 38.8125 7.1875L34.125 15C32.7708 13.625 31.2083 12.5521 29.4375 11.7812C27.6667 10.9896 25.8021 10.5938 23.8438 10.5938C21.8854 10.5938 20.0417 10.9688 18.3125 11.7188C16.6042 12.4688 15.1042 13.4896 13.8125 14.7812C12.5208 16.0521 11.5 17.5521 10.75 19.2812C10 20.9896 9.625 22.8229 9.625 24.7812C9.625 26.7604 10 28.6146 10.75 30.3438C11.5 32.0729 12.5208 33.5833 13.8125 34.875C15.1042 36.1667 16.6042 37.1875 18.3125 37.9375C20.0417 38.6875 21.8854 39.0625 23.8438 39.0625C24.9688 39.0625 26.0625 38.9271 27.125 38.6562C28.1875 38.3854 29.1979 38.0104 30.1562 37.5312V24.7812H38.8125V42.4688ZM77.2188 47H75.1562L71.8438 42.4062C71.0312 43.1354 70.1667 43.8229 69.25 44.4688C68.3542 45.0938 67.4062 45.6458 66.4062 46.125C65.4062 46.5833 64.375 46.9479 63.3125 47.2188C62.2708 47.4896 61.2083 47.625 60.125 47.625C57.7708 47.625 55.5521 47.2292 53.4688 46.4375C51.4062 45.6458 49.5938 44.5 48.0312 43C46.4896 41.4792 45.2708 39.625 44.375 37.4375C43.4792 35.25 43.0312 32.7604 43.0312 29.9688C43.0312 27.3646 43.4792 24.9792 44.375 22.8125C45.2708 20.625 46.4896 18.75 48.0312 17.1875C49.5938 15.625 51.4062 14.4167 53.4688 13.5625C55.5521 12.6875 57.7708 12.25 60.125 12.25C61.2083 12.25 62.2812 12.3854 63.3438 12.6562C64.4062 12.9271 65.4375 13.3021 66.4375 13.7812C67.4375 14.2604 68.3854 14.8229 69.2812 15.4688C70.1979 16.1146 71.0521 16.8125 71.8438 17.5625L75.1562 13.5938H77.2188V47ZM68.625 29.9688C68.625 28.8021 68.3958 27.6771 67.9375 26.5938C67.5 25.4896 66.8958 24.5208 66.125 23.6875C65.3542 22.8333 64.4479 22.1562 63.4062 21.6562C62.3854 21.1354 61.2917 20.875 60.125 20.875C58.9583 20.875 57.8542 21.0729 56.8125 21.4688C55.7917 21.8646 54.8958 22.4479 54.125 23.2188C53.375 23.9896 52.7812 24.9479 52.3438 26.0938C51.9062 27.2188 51.6875 28.5104 51.6875 29.9688C51.6875 31.4271 51.9062 32.7292 52.3438 33.875C52.7812 35 53.375 35.9479 54.125 36.7188C54.8958 37.4896 55.7917 38.0729 56.8125 38.4688C57.8542 38.8646 58.9583 39.0625 60.125 39.0625C61.2917 39.0625 62.3854 38.8125 63.4062 38.3125C64.4479 37.7917 65.3542 37.1146 66.125 36.2812C66.8958 35.4271 67.5 34.4583 67.9375 33.375C68.3958 32.2708 68.625 31.1354 68.625 29.9688ZM100.531 47C98.4688 47 96.5312 46.6146 94.7188 45.8438C92.9062 45.0521 91.3125 43.9792 89.9375 42.625C88.5833 41.25 87.5104 39.6562 86.7188 37.8438C85.9479 36.0312 85.5625 34.0938 85.5625 32.0312V22.0938H81.4062V13.5938H85.5625V0.21875H94.0625V13.5938H107V22.0938H94.0625V32.0312C94.0625 32.9271 94.2292 33.7708 94.5625 34.5625C94.8958 35.3333 95.3542 36.0104 95.9375 36.5938C96.5208 37.1771 97.2083 37.6458 98 38C98.7917 38.3333 99.6354 38.5 100.531 38.5H107V47H100.531ZM120.344 47H111.812V0.21875H120.344V15C121.365 14.2292 122.417 13.6875 123.5 13.375C124.583 13.0417 125.688 12.875 126.812 12.875C128.875 12.875 130.812 13.2708 132.625 14.0625C134.438 14.8333 136.01 15.9062 137.344 17.2812C138.698 18.6354 139.76 20.2292 140.531 22.0625C141.323 23.875 141.719 25.8125 141.719 27.875V47H133.125V27.875H133.188C133.188 27 133.021 26.1771 132.688 25.4062C132.354 24.6146 131.896 23.9271 131.312 23.3438C130.729 22.7604 130.052 22.3021 129.281 21.9688C128.51 21.6354 127.688 21.4688 126.812 21.4688C125.917 21.4688 125.073 21.6354 124.281 21.9688C123.49 22.3021 122.802 22.7604 122.219 23.3438C121.635 23.9271 121.177 24.6146 120.844 25.4062C120.51 26.1771 120.344 27 120.344 27.875V47ZM161.125 38.8125C161.458 38.9167 161.792 38.9896 162.125 39.0312C162.458 39.0521 162.792 39.0625 163.125 39.0625C163.958 39.0625 164.76 38.9479 165.531 38.7188C166.302 38.4896 167.021 38.1667 167.688 37.75C168.375 37.3125 168.979 36.7917 169.5 36.1875C170.042 35.5625 170.479 34.875 170.812 34.125L177.062 40.4062C176.271 41.5312 175.354 42.5417 174.312 43.4375C173.292 44.3333 172.177 45.0938 170.969 45.7188C169.781 46.3438 168.521 46.8125 167.188 47.125C165.875 47.4583 164.521 47.625 163.125 47.625C160.771 47.625 158.552 47.1875 156.469 46.3125C154.406 45.4375 152.594 44.2188 151.031 42.6562C149.49 41.0938 148.271 39.2396 147.375 37.0938C146.479 34.9271 146.031 32.5521 146.031 29.9688C146.031 27.3229 146.479 24.9062 147.375 22.7188C148.271 20.5312 149.49 18.6667 151.031 17.125C152.594 15.5833 154.406 14.3854 156.469 13.5312C158.552 12.6771 160.771 12.25 163.125 12.25C164.521 12.25 165.885 12.4167 167.219 12.75C168.552 13.0833 169.812 13.5625 171 14.1875C172.208 14.8125 173.333 15.5833 174.375 16.5C175.417 17.3958 176.333 18.4062 177.125 19.5312L161.125 38.8125ZM165.5 21.2188C165.104 21.0729 164.708 20.9792 164.312 20.9375C163.938 20.8958 163.542 20.875 163.125 20.875C161.958 20.875 160.854 21.0938 159.812 21.5312C158.792 21.9479 157.896 22.5521 157.125 23.3438C156.375 24.1354 155.781 25.0938 155.344 26.2188C154.906 27.3229 154.688 28.5729 154.688 29.9688C154.688 30.2812 154.698 30.6354 154.719 31.0312C154.76 31.4271 154.812 31.8333 154.875 32.25C154.958 32.6458 155.052 33.0312 155.156 33.4062C155.26 33.7812 155.396 34.1146 155.562 34.4062L165.5 21.2188ZM189.969 47H181.438V13.5312H183.5L186.312 17.5C187.688 16.25 189.25 15.2917 191 14.625C192.75 13.9375 194.562 13.5938 196.438 13.5938H203.969V22.0938H196.438C195.542 22.0938 194.698 22.2604 193.906 22.5938C193.115 22.9271 192.427 23.3854 191.844 23.9688C191.26 24.5521 190.802 25.2396 190.469 26.0312C190.135 26.8229 189.969 27.6667 189.969 28.5625V47Z" fill="#500000"/>
</svg>
